<?xml version="1.0" encoding="UTF-8"?>
<svg xmlns="http://www.w3.org/2000/svg" xmlns:xlink="http://www.w3.org/1999/xlink" width="35px" height="35px" viewBox="0 0 35 35" version="1.1">
<g id="surface1" transform = "rotate (290, 17, 17)">
<path style=" stroke:none;fill-rule:evenodd;fill:rgb(95.686275%,95.686275%,96.078431%);fill-opacity:1;" d="M 17.453125 2.09375 C 17.761719 2.597656 17.71875 3.222656 17.347656 3.6875 C 15.808594 5.609375 15.066406 7.976562 15.257812 10.359375 C 15.453125 12.742188 16.566406 14.984375 18.394531 16.671875 C 20.226562 18.363281 22.652344 19.390625 25.234375 19.570312 C 27.816406 19.746094 30.382812 19.0625 32.464844 17.640625 C 32.96875 17.296875 33.644531 17.257812 34.191406 17.542969 C 34.738281 17.828125 35.050781 18.382812 34.992188 18.957031 C 34.6875 22.019531 33.441406 24.9375 31.40625 27.367188 C 29.367188 29.800781 26.621094 31.648438 23.492188 32.691406 C 20.359375 33.734375 16.96875 33.933594 13.71875 33.265625 C 10.46875 32.597656 7.492188 31.085938 5.136719 28.914062 C 2.78125 26.738281 1.144531 23.992188 0.421875 20.992188 C -0.304688 17.992188 -0.0898438 14.863281 1.042969 11.96875 C 2.175781 9.078125 4.175781 6.542969 6.808594 4.664062 C 9.445312 2.785156 12.605469 1.636719 15.921875 1.351562 C 16.542969 1.300781 17.144531 1.589844 17.453125 2.09375 Z M 13.015625 4.894531 C 11.484375 5.363281 10.042969 6.070312 8.753906 6.988281 C 6.597656 8.527344 4.960938 10.601562 4.035156 12.96875 C 3.109375 15.335938 2.933594 17.894531 3.527344 20.351562 C 4.117188 22.808594 5.457031 25.058594 7.386719 26.835938 C 9.3125 28.617188 11.75 29.851562 14.410156 30.398438 C 17.070312 30.945312 19.84375 30.785156 22.410156 29.929688 C 24.972656 29.074219 27.21875 27.5625 28.886719 25.570312 C 29.882812 24.382812 30.648438 23.050781 31.15625 21.636719 C 29.214844 22.34375 27.109375 22.644531 24.996094 22.496094 C 21.65625 22.265625 18.515625 20.9375 16.144531 18.75 C 13.777344 16.5625 12.335938 13.664062 12.085938 10.578125 C 11.929688 8.628906 12.253906 6.6875 13.015625 4.894531 Z M 13.015625 4.894531 "/>
</g>
</svg>
