<?xml version="1.0" encoding="UTF-8"?>
<svg xmlns="http://www.w3.org/2000/svg" xmlns:xlink="http://www.w3.org/1999/xlink" width="35px" height="35px" viewBox="0 0 40 40" version="1.1">
<g id="surface1">
<path style=" stroke:none;fill-rule:evenodd;fill:rgb(62.745098%,62.745098%,62.745098%);fill-opacity:1;" d="M 19.945312 2.390625 C 20.296875 2.96875 20.25 3.683594 19.824219 4.214844 C 18.066406 6.410156 17.21875 9.117188 17.4375 11.839844 C 17.660156 14.5625 18.929688 17.125 21.023438 19.054688 C 23.113281 20.984375 25.890625 22.160156 28.839844 22.363281 C 31.792969 22.566406 34.722656 21.785156 37.101562 20.164062 C 37.675781 19.769531 38.453125 19.726562 39.074219 20.046875 C 39.699219 20.375 40.058594 21.007812 39.992188 21.667969 C 39.640625 25.164062 38.21875 28.5 35.890625 31.277344 C 33.5625 34.058594 30.425781 36.167969 26.847656 37.359375 C 23.265625 38.554688 19.390625 38.78125 15.675781 38.015625 C 11.960938 37.253906 8.558594 35.527344 5.867188 33.046875 C 3.175781 30.558594 1.308594 27.421875 0.480469 23.988281 C -0.347656 20.5625 -0.101562 16.984375 1.191406 13.679688 C 2.484375 10.375 4.769531 7.480469 7.78125 5.328125 C 10.792969 3.179688 14.40625 1.867188 18.195312 1.546875 C 18.910156 1.484375 19.59375 1.816406 19.945312 2.390625 Z M 14.878906 5.59375 C 13.128906 6.128906 11.480469 6.933594 10.007812 7.984375 C 7.542969 9.746094 5.671875 12.113281 4.609375 14.820312 C 3.550781 17.523438 3.351562 20.453125 4.027344 23.261719 C 4.707031 26.066406 6.234375 28.636719 8.441406 30.671875 C 10.640625 32.703125 13.425781 34.113281 16.46875 34.742188 C 19.511719 35.367188 22.679688 35.179688 25.609375 34.203125 C 28.542969 33.226562 31.109375 31.5 33.015625 29.226562 C 34.152344 27.863281 35.027344 26.34375 35.609375 24.730469 C 33.390625 25.535156 30.984375 25.878906 28.570312 25.710938 C 24.75 25.449219 21.160156 23.929688 18.453125 21.429688 C 15.742188 18.929688 14.097656 15.613281 13.8125 12.089844 C 13.632812 9.859375 14.003906 7.640625 14.878906 5.59375 Z M 14.878906 5.59375 "/>
</g>
</svg>
