<?xml version="1.0" encoding="UTF-8"?>
<svg xmlns="http://www.w3.org/2000/svg" xmlns:xlink="http://www.w3.org/1999/xlink" width="35px" height="35px" viewBox="0 0 37 37" version="1.1">
<g id="surface1">
<path style=" stroke:none;fill-rule:nonzero;fill:rgb(0%,0%,0%);fill-opacity:1;" d="M 18.957031 2.671875 C 18.957031 1.878906 18.304688 1.234375 17.5 1.234375 C 16.695312 1.234375 16.042969 1.878906 16.042969 2.671875 L 16.042969 5.550781 C 16.042969 6.34375 16.695312 6.988281 17.5 6.988281 C 18.304688 6.988281 18.957031 6.34375 18.957031 5.550781 Z M 18.957031 2.671875 "/>
<path style=" stroke:none;fill-rule:nonzero;fill:rgb(0%,0%,0%);fill-opacity:1;" d="M 7.183594 6.289062 C 6.617188 5.726562 5.691406 5.726562 5.121094 6.289062 C 4.554688 6.847656 4.554688 7.761719 5.121094 8.324219 L 7.195312 10.367188 C 7.761719 10.925781 8.6875 10.925781 9.257812 10.367188 C 9.824219 9.804688 9.824219 8.894531 9.257812 8.332031 Z M 7.183594 6.289062 "/>
<path style=" stroke:none;fill-rule:nonzero;fill:rgb(0%,0%,0%);fill-opacity:1;" d="M 29.875 8.324219 C 30.445312 7.761719 30.445312 6.847656 29.875 6.289062 C 29.308594 5.726562 28.382812 5.726562 27.8125 6.289062 L 25.742188 8.332031 C 25.171875 8.894531 25.171875 9.804688 25.742188 10.367188 C 26.3125 10.925781 27.234375 10.925781 27.804688 10.367188 Z M 29.875 8.324219 "/>
<path style=" stroke:none;fill-rule:nonzero;fill:rgb(0%,0%,0%);fill-opacity:1;" d="M 1.457031 17.0625 C 0.652344 17.0625 0 17.707031 0 18.5 C 0 19.292969 0.652344 19.9375 1.457031 19.9375 L 4.375 19.9375 C 5.179688 19.9375 5.832031 19.292969 5.832031 18.5 C 5.832031 17.707031 5.179688 17.0625 4.375 17.0625 Z M 1.457031 17.0625 "/>
<path style=" stroke:none;fill-rule:nonzero;fill:rgb(0%,0%,0%);fill-opacity:1;" d="M 30.625 17.0625 C 29.820312 17.0625 29.167969 17.707031 29.167969 18.5 C 29.167969 19.292969 29.820312 19.9375 30.625 19.9375 L 33.542969 19.9375 C 34.347656 19.9375 35 19.292969 35 18.5 C 35 17.707031 34.347656 17.0625 33.542969 17.0625 Z M 30.625 17.0625 "/>
<path style=" stroke:none;fill-rule:nonzero;fill:rgb(0%,0%,0%);fill-opacity:1;" d="M 9.257812 28.667969 C 9.824219 28.105469 9.824219 27.195312 9.257812 26.632812 C 8.6875 26.070312 7.761719 26.070312 7.195312 26.632812 L 5.121094 28.675781 C 4.554688 29.238281 4.554688 30.148438 5.121094 30.710938 C 5.691406 31.273438 6.617188 31.273438 7.183594 30.710938 Z M 9.257812 28.667969 "/>
<path style=" stroke:none;fill-rule:nonzero;fill:rgb(0%,0%,0%);fill-opacity:1;" d="M 27.804688 26.632812 C 27.234375 26.070312 26.3125 26.070312 25.742188 26.632812 C 25.171875 27.195312 25.171875 28.105469 25.742188 28.667969 L 27.8125 30.710938 C 28.382812 31.273438 29.308594 31.273438 29.875 30.710938 C 30.445312 30.148438 30.445312 29.238281 29.875 28.675781 Z M 27.804688 26.632812 "/>
<path style=" stroke:none;fill-rule:nonzero;fill:rgb(0%,0%,0%);fill-opacity:1;" d="M 18.957031 31.449219 C 18.957031 30.65625 18.304688 30.011719 17.5 30.011719 C 16.695312 30.011719 16.042969 30.65625 16.042969 31.449219 L 16.042969 34.328125 C 16.042969 35.121094 16.695312 35.765625 17.5 35.765625 C 18.304688 35.765625 18.957031 35.121094 18.957031 34.328125 Z M 18.957031 31.449219 "/>
<path style=" stroke:none;fill-rule:evenodd;fill:rgb(0%,0%,0%);fill-opacity:1;" d="M 26.925781 18.5 C 26.925781 23.632812 22.707031 27.796875 17.5 27.796875 C 12.296875 27.796875 8.078125 23.632812 8.078125 18.5 C 8.078125 13.363281 12.296875 9.203125 17.5 9.203125 C 22.707031 9.203125 26.925781 13.363281 26.925781 18.5 Z M 24.425781 18.5 C 24.425781 22.273438 21.324219 25.332031 17.5 25.332031 C 13.679688 25.332031 10.578125 22.273438 10.578125 18.5 C 10.578125 14.726562 13.679688 11.667969 17.5 11.667969 C 21.324219 11.667969 24.425781 14.726562 24.425781 18.5 Z M 24.425781 18.5 "/>
</g>
</svg>
