<?xml version="1.0" encoding="UTF-8"?>
<svg xmlns="http://www.w3.org/2000/svg" xmlns:xlink="http://www.w3.org/1999/xlink" width="35px" height="35px" viewBox="0 0 35 35" version="1.1">
<g id="surface1">
<path style=" stroke:none;fill-rule:nonzero;fill:rgb(0%,0%,0%);fill-opacity:1;" d="M 18.957031 2.527344 C 18.957031 1.777344 18.304688 1.167969 17.5 1.167969 C 16.695312 1.167969 16.042969 1.777344 16.042969 2.527344 L 16.042969 5.25 C 16.042969 6 16.695312 6.609375 17.5 6.609375 C 18.304688 6.609375 18.957031 6 18.957031 5.25 Z M 18.957031 2.527344 "/>
<path style=" stroke:none;fill-rule:nonzero;fill:rgb(0%,0%,0%);fill-opacity:1;" d="M 7.183594 5.949219 C 6.617188 5.417969 5.691406 5.417969 5.121094 5.949219 C 4.554688 6.480469 4.554688 7.339844 5.121094 7.871094 L 7.195312 9.804688 C 7.761719 10.335938 8.6875 10.335938 9.257812 9.804688 C 9.824219 9.273438 9.824219 8.414062 9.257812 7.878906 Z M 7.183594 5.949219 "/>
<path style=" stroke:none;fill-rule:nonzero;fill:rgb(0%,0%,0%);fill-opacity:1;" d="M 29.875 7.871094 C 30.445312 7.339844 30.445312 6.480469 29.875 5.949219 C 29.308594 5.417969 28.382812 5.417969 27.8125 5.949219 L 25.742188 7.878906 C 25.171875 8.414062 25.171875 9.273438 25.742188 9.804688 C 26.3125 10.335938 27.234375 10.335938 27.804688 9.804688 Z M 29.875 7.871094 "/>
<path style=" stroke:none;fill-rule:nonzero;fill:rgb(0%,0%,0%);fill-opacity:1;" d="M 1.457031 16.140625 C 0.652344 16.140625 0 16.75 0 17.5 C 0 18.25 0.652344 18.859375 1.457031 18.859375 L 4.375 18.859375 C 5.179688 18.859375 5.832031 18.25 5.832031 17.5 C 5.832031 16.75 5.179688 16.140625 4.375 16.140625 Z M 1.457031 16.140625 "/>
<path style=" stroke:none;fill-rule:nonzero;fill:rgb(0%,0%,0%);fill-opacity:1;" d="M 30.625 16.140625 C 29.820312 16.140625 29.167969 16.75 29.167969 17.5 C 29.167969 18.25 29.820312 18.859375 30.625 18.859375 L 33.542969 18.859375 C 34.347656 18.859375 35 18.25 35 17.5 C 35 16.75 34.347656 16.140625 33.542969 16.140625 Z M 30.625 16.140625 "/>
<path style=" stroke:none;fill-rule:nonzero;fill:rgb(0%,0%,0%);fill-opacity:1;" d="M 9.257812 27.117188 C 9.824219 26.585938 9.824219 25.726562 9.257812 25.195312 C 8.6875 24.664062 7.761719 24.664062 7.195312 25.195312 L 5.121094 27.125 C 4.554688 27.65625 4.554688 28.519531 5.121094 29.050781 C 5.691406 29.582031 6.617188 29.582031 7.183594 29.050781 Z M 9.257812 27.117188 "/>
<path style=" stroke:none;fill-rule:nonzero;fill:rgb(0%,0%,0%);fill-opacity:1;" d="M 27.804688 25.195312 C 27.234375 24.664062 26.3125 24.664062 25.742188 25.195312 C 25.171875 25.726562 25.171875 26.585938 25.742188 27.117188 L 27.8125 29.050781 C 28.382812 29.582031 29.308594 29.582031 29.875 29.050781 C 30.445312 28.519531 30.445312 27.65625 29.875 27.125 Z M 27.804688 25.195312 "/>
<path style=" stroke:none;fill-rule:nonzero;fill:rgb(0%,0%,0%);fill-opacity:1;" d="M 18.957031 29.75 C 18.957031 29 18.304688 28.390625 17.5 28.390625 C 16.695312 28.390625 16.042969 29 16.042969 29.75 L 16.042969 32.472656 C 16.042969 33.222656 16.695312 33.832031 17.5 33.832031 C 18.304688 33.832031 18.957031 33.222656 18.957031 32.472656 Z M 18.957031 29.75 "/>
<path style=" stroke:none;fill-rule:evenodd;fill:rgb(0%,0%,0%);fill-opacity:1;" d="M 26.925781 17.5 C 26.925781 22.355469 22.707031 26.292969 17.5 26.292969 C 12.296875 26.292969 8.078125 22.355469 8.078125 17.5 C 8.078125 12.644531 12.296875 8.703125 17.5 8.703125 C 22.707031 8.703125 26.925781 12.644531 26.925781 17.5 Z M 24.425781 17.5 C 24.425781 21.070312 21.324219 23.960938 17.5 23.960938 C 13.679688 23.960938 10.578125 21.070312 10.578125 17.5 C 10.578125 13.929688 13.679688 11.039062 17.5 11.039062 C 21.324219 11.039062 24.425781 13.929688 24.425781 17.5 Z M 24.425781 17.5 "/>
</g>
</svg>
