<svg width="20" height="20" viewBox="0 0 20 20" fill="none" xmlns="http://www.w3.org/2000/svg">
<path d="M8.79228 4.63819L3.17767 14.0114C3.0619 14.2118 3.00065 14.4391 3.00001 14.6706C2.99936 14.9021 3.05933 15.1297 3.17397 15.3308C3.28861 15.532 3.45391 15.6995 3.65342 15.8169C3.85294 15.9343 4.07972 15.9975 4.31119 16H15.5404C15.7719 15.9975 15.9987 15.9343 16.1982 15.8169C16.3977 15.6995 16.563 15.532 16.6777 15.3308C16.7923 15.1297 16.8523 14.9021 16.8516 14.6706C16.851 14.4391 16.7897 14.2118 16.674 14.0114L11.0593 4.63819C10.9412 4.44337 10.7748 4.2823 10.5762 4.17051C10.3777 4.05873 10.1537 4 9.92581 4C9.69796 4 9.47395 4.05873 9.2754 4.17051C9.07684 4.2823 8.91046 4.44337 8.79228 4.63819V4.63819Z" stroke="#FF991D" stroke-width="1.2" stroke-linecap="round" stroke-linejoin="round"/>
<path d="M9.92578 8.04545V10.697" stroke="#FF991D" stroke-width="1.2" stroke-linecap="round" stroke-linejoin="round"/>
<path d="M9.92578 13.3485H9.93453" stroke="#FF991D" stroke-width="1.2" stroke-linecap="round" stroke-linejoin="round"/>
</svg>
