<svg width="30" height="30" viewBox="0 0 30 30" fill="none" xmlns="http://www.w3.org/2000/svg">
<path d="M24.4436 4.59974L16.3126 11.1002L17.8294 7.27087L24.4436 4.59974Z" fill="#E17726"/>
<path d="M16.313 11.2071C16.297 11.2138 16.2793 11.2138 16.2633 11.2071C16.2542 11.1935 16.2493 11.1771 16.2493 11.1603C16.2493 11.1434 16.2542 11.127 16.2633 11.1134L17.7863 7.2774C17.7766 7.26578 17.7702 7.25135 17.768 7.23589C17.7658 7.22043 17.7679 7.20461 17.7739 7.19037L24.3943 4.51255C24.4117 4.50554 24.4309 4.50577 24.4482 4.5132C24.4654 4.52063 24.4795 4.53472 24.4876 4.55271C24.4998 4.56744 24.5066 4.58651 24.5066 4.60627C24.5066 4.62603 24.4998 4.6451 24.4876 4.65983L16.313 11.1669C16.3173 11.1799 16.3173 11.1941 16.313 11.2071ZM17.892 7.35104L16.4622 10.8523L23.9592 4.88075L17.892 7.35104Z" fill="#E17726"/>
<path d="M5.61401 4.59974L13.6953 11.1604L12.2593 7.27087L5.61401 4.59974Z" fill="#E27625"/>
<path d="M13.7089 11.2474C13.6929 11.2541 13.6751 11.2541 13.6592 11.2474L5.56542 4.66665C5.55319 4.65192 5.54642 4.63285 5.54642 4.61309C5.54642 4.59333 5.55319 4.57426 5.56542 4.55953C5.57181 4.54436 5.58242 4.53169 5.59578 4.5233C5.60915 4.5149 5.62461 4.51119 5.64002 4.51267L12.2853 7.1905C12.307 7.19847 12.3249 7.21531 12.3351 7.23736L13.7773 11.1336C13.7874 11.1468 13.7929 11.1634 13.7929 11.1805C13.7929 11.1976 13.7874 11.2141 13.7773 11.2273C13.7687 11.2371 13.7577 11.2441 13.7457 11.2477C13.7336 11.2512 13.7209 11.2511 13.7089 11.2474ZM6.0876 4.87418L13.5473 10.8993L12.1983 7.33109L6.0876 4.87418Z" fill="#E27625"/>
<path d="M21.5039 19.6823L19.3344 23.2572L23.9843 24.6363L25.3208 19.7626L21.5039 19.6823Z" fill="#E27625"/>
<path d="M23.9837 24.7169L19.3338 23.3378C19.3214 23.334 19.3099 23.3271 19.3002 23.3179C19.2905 23.3086 19.2829 23.2971 19.2779 23.2843C19.2732 23.2726 19.2709 23.2601 19.2709 23.2475C19.2709 23.2348 19.2732 23.2223 19.2779 23.2106L21.4536 19.6357C21.4598 19.6223 21.4697 19.6113 21.482 19.6041C21.4942 19.597 21.5081 19.594 21.522 19.5956L25.3326 19.6759C25.3449 19.6751 25.3572 19.6777 25.3684 19.6832C25.3795 19.6888 25.3892 19.6973 25.3966 19.7079C25.404 19.7185 25.4088 19.7309 25.4107 19.744C25.4125 19.7571 25.4113 19.7705 25.4072 19.783L24.0707 24.6567C24.0693 24.6671 24.0659 24.6772 24.0606 24.6861C24.0553 24.6949 24.0482 24.7025 24.04 24.7082C24.0317 24.7139 24.0224 24.7177 24.0127 24.7192C24.003 24.7207 23.9931 24.7199 23.9837 24.7169ZM19.4581 23.2039L23.9339 24.5429L25.2145 19.8567L21.5468 19.783L19.4581 23.2039Z" fill="#E27625"/>
<path d="M4.75117 19.7626L6.07526 24.6363L10.7189 23.2572L8.5556 19.6823L4.75117 19.7626Z" fill="#E27625"/>
<path d="M6.07535 24.7167C6.05815 24.7187 6.04088 24.7136 6.02704 24.7024C6.01319 24.6912 6.0038 24.6748 6.00075 24.6565L4.67666 19.7828C4.67066 19.7716 4.6675 19.7589 4.6675 19.746C4.6675 19.7331 4.67066 19.7204 4.67666 19.7092C4.68373 19.6986 4.69307 19.69 4.70391 19.6842C4.71474 19.6783 4.72672 19.6754 4.73883 19.6757L8.53704 19.5954C8.54959 19.5964 8.56175 19.6006 8.57254 19.6075C8.58333 19.6145 8.59246 19.6241 8.5992 19.6355L10.7625 23.2105C10.7685 23.2216 10.7717 23.2343 10.7717 23.2473C10.7717 23.2602 10.7685 23.2729 10.7625 23.2841C10.7595 23.297 10.7533 23.3089 10.7445 23.3183C10.7358 23.3277 10.7248 23.3344 10.7128 23.3377L6.094 24.7167H6.07535ZM4.83207 19.8431L6.10643 24.5293L10.576 23.1904L8.51217 19.7694L4.83207 19.8431Z" fill="#E27625"/>
<path d="M10.4697 13.644L9.17665 15.7461L13.7768 15.967L13.6276 10.6113L10.4697 13.644Z" fill="#E27625"/>
<path d="M13.7773 16.0542L9.17092 15.8266C9.15761 15.8255 9.14482 15.8206 9.13389 15.8123C9.12296 15.8041 9.11428 15.7928 9.10875 15.7798C9.10276 15.7674 9.09963 15.7536 9.09963 15.7396C9.09963 15.7256 9.10276 15.7118 9.10875 15.6994L10.4018 13.5973L13.5597 10.5848C13.572 10.5771 13.5859 10.5731 13.6001 10.5731C13.6143 10.5731 13.6282 10.5771 13.6405 10.5848C13.6547 10.5902 13.6671 10.6001 13.676 10.6133C13.6849 10.6264 13.6898 10.6422 13.6902 10.6584L13.8456 16.0141C13.8514 16.0337 13.8514 16.0547 13.8456 16.0743C13.8336 16.078 13.8209 16.0781 13.8088 16.0746C13.7968 16.071 13.7859 16.064 13.7773 16.0542ZM9.31389 15.666L13.6654 15.8802L13.5224 10.8124L10.5261 13.6977L9.31389 15.666Z" fill="#E27625"/>
<path d="M19.5948 13.644L16.3872 10.5712L16.3126 15.9671L20.9127 15.7461L19.5948 13.644Z" fill="#E27625"/>
<path d="M16.3135 16.0541C16.2955 16.0619 16.2755 16.0619 16.2575 16.0541C16.2509 16.0347 16.2509 16.0133 16.2575 15.9939L16.3135 10.5713C16.3139 10.555 16.3189 10.5393 16.3277 10.5261C16.3366 10.513 16.349 10.503 16.3632 10.4976C16.3755 10.49 16.3894 10.486 16.4036 10.486C16.4178 10.486 16.4318 10.49 16.444 10.4976L19.6517 13.5704L20.9447 15.6725C20.9507 15.6849 20.9538 15.6987 20.9538 15.7127C20.9538 15.7267 20.9507 15.7404 20.9447 15.7529C20.9373 15.7657 20.9273 15.7766 20.9155 15.7847C20.9036 15.7928 20.8903 15.7979 20.8763 15.7997L16.2762 16.0273L16.3135 16.0541ZM16.4938 10.7587L16.3632 15.8934L20.7458 15.6792L19.5336 13.711L16.4938 10.7587Z" fill="#E27625"/>
<path d="M10.7178 23.2571L13.5027 21.8044L11.1032 19.796L10.7178 23.2571Z" fill="#E27625"/>
<path d="M10.7186 23.3373C10.7118 23.3408 10.7044 23.3427 10.6968 23.3427C10.6893 23.3427 10.6819 23.3408 10.6751 23.3373C10.6631 23.3283 10.6534 23.3163 10.6469 23.3022C10.6404 23.2882 10.6372 23.2726 10.6378 23.2569L11.0294 19.7958C11.0304 19.7815 11.035 19.7677 11.0427 19.756C11.0503 19.7442 11.0608 19.7348 11.0729 19.7289C11.085 19.7205 11.099 19.7161 11.1133 19.7161C11.1277 19.7161 11.1417 19.7205 11.1537 19.7289L13.5533 21.7373C13.5599 21.7482 13.5635 21.761 13.5635 21.7741C13.5635 21.7872 13.5599 21.8 13.5533 21.8109C13.5522 21.8252 13.5476 21.839 13.54 21.8508C13.5323 21.8626 13.5219 21.8719 13.5097 21.8779L10.7248 23.3239L10.7186 23.3373ZM11.1662 19.9498L10.8118 23.1164L13.3543 21.7774L11.1662 19.9498Z" fill="#E27625"/>
<path d="M16.5556 21.8044L19.3343 23.2571L18.9551 19.796L16.5556 21.8044Z" fill="#E27625"/>
<path d="M19.3348 23.3377H19.3038L16.525 21.9184C16.5129 21.9125 16.5024 21.9031 16.4948 21.8914C16.4871 21.8796 16.4825 21.8658 16.4815 21.8515C16.4748 21.8406 16.4713 21.8278 16.4713 21.8147C16.4713 21.8016 16.4748 21.7888 16.4815 21.7778L18.881 19.7695C18.8933 19.7618 18.9073 19.7578 18.9214 19.7578C18.9356 19.7578 18.9496 19.7618 18.9619 19.7695C18.974 19.7754 18.9845 19.7848 18.9921 19.7965C18.9998 19.8083 19.0043 19.8221 19.0054 19.8364L19.4219 23.2573C19.4253 23.2726 19.4241 23.2885 19.4185 23.303C19.4129 23.3174 19.4032 23.3296 19.3908 23.3377C19.3825 23.3437 19.3728 23.347 19.3628 23.347C19.3528 23.347 19.3431 23.3437 19.3348 23.3377ZM16.7053 21.7912L19.2416 23.1301L18.8935 19.9636L16.7053 21.7912Z" fill="#E27625"/>
<path d="M19.3343 23.2571L16.5556 21.8044L16.7794 23.7525V24.576L19.3343 23.2571Z" fill="#D5BFB2"/>
<path d="M16.7605 24.6565C16.7537 24.66 16.7463 24.6619 16.7387 24.6619C16.7312 24.6619 16.7237 24.66 16.717 24.6565C16.7045 24.6497 16.6943 24.6391 16.6876 24.6259C16.681 24.6128 16.6782 24.5977 16.6797 24.5828V23.7594L16.4559 21.8314C16.4525 21.8162 16.4536 21.8002 16.4592 21.7857C16.4648 21.7713 16.4745 21.7591 16.487 21.751C16.499 21.7427 16.513 21.7382 16.5274 21.7382C16.5417 21.7382 16.5557 21.7427 16.5678 21.751L19.3403 23.2037C19.3536 23.21 19.3649 23.2203 19.3729 23.2334C19.3808 23.2465 19.3851 23.2618 19.3851 23.2774C19.3851 23.293 19.3808 23.3083 19.3729 23.3214C19.3649 23.3345 19.3536 23.3448 19.3403 23.351L16.7667 24.6899L16.7605 24.6565ZM16.6486 21.9786L16.8599 23.7661V24.469L19.1538 23.2573L16.6486 21.9786Z" fill="#D5BFB2"/>
<path d="M10.7178 23.2573L13.3038 24.5962V23.7728L13.5214 21.8247L10.7178 23.2573Z" fill="#D5BFB2"/>
<path d="M13.305 24.6567H13.2677L10.6817 23.3178C10.6684 23.3116 10.657 23.3013 10.6491 23.2882C10.6411 23.2751 10.6369 23.2598 10.6369 23.2442C10.6369 23.2285 10.6411 23.2132 10.6491 23.2002C10.657 23.1871 10.6684 23.1768 10.6817 23.1705L13.4728 21.7178C13.4836 21.7091 13.4967 21.7044 13.5101 21.7044C13.5236 21.7044 13.5367 21.7091 13.5474 21.7178C13.5547 21.7298 13.5585 21.7437 13.5585 21.758C13.5585 21.7722 13.5547 21.7862 13.5474 21.7981L13.3299 23.7396V24.5496C13.3313 24.5645 13.3286 24.5796 13.3219 24.5927C13.3152 24.6059 13.305 24.6165 13.2926 24.6233C13.2966 24.6277 13.2998 24.6329 13.3019 24.6386C13.304 24.6444 13.3051 24.6505 13.305 24.6567ZM10.8993 23.2576L13.2055 24.4425V23.773L13.4107 21.9722L10.8993 23.2576Z" fill="#D5BFB2"/>
<path d="M13.3482 18.5111L11.0419 17.7814L12.6706 16.9781L13.3482 18.5111Z" fill="#161616"/>
<path d="M13.3482 18.5711L11.0357 17.8414C11.0203 17.8364 11.0068 17.8263 10.9972 17.8124C10.9876 17.7985 10.9825 17.7817 10.9825 17.7644C10.9825 17.7471 10.9876 17.7303 10.9972 17.7164C11.0068 17.7025 11.0203 17.6924 11.0357 17.6874L12.6644 16.8774C12.6734 16.8729 12.6831 16.8704 12.693 16.87C12.7029 16.8696 12.7127 16.8713 12.722 16.875C12.7312 16.8788 12.7397 16.8845 12.7469 16.8918C12.7541 16.8991 12.7599 16.9078 12.7639 16.9175L13.4477 18.4573C13.4548 18.4705 13.4585 18.4855 13.4585 18.5008C13.4585 18.5161 13.4548 18.5311 13.4477 18.5443C13.4359 18.5595 13.4199 18.5703 13.402 18.5752C13.3841 18.58 13.3653 18.5785 13.3482 18.5711ZM11.2595 17.7343L13.2053 18.3502L12.6333 17.0581L11.2595 17.7343Z" fill="#161616"/>
<path d="M16.7108 18.5111L17.3884 16.9781L19.0295 17.7814L16.7108 18.5111Z" fill="#161616"/>
<path d="M16.7107 18.5712C16.6988 18.5705 16.6871 18.5672 16.6764 18.5615C16.6657 18.5557 16.6562 18.5476 16.6485 18.5378C16.6414 18.5245 16.6377 18.5095 16.6377 18.4942C16.6377 18.479 16.6414 18.464 16.6485 18.4507L17.3323 16.911C17.3416 16.8925 17.3568 16.8782 17.3751 16.8708C17.3934 16.8634 17.4135 16.8634 17.4318 16.8708L19.0729 17.6809C19.087 17.6877 19.0988 17.6992 19.1066 17.7135C19.1144 17.7279 19.1178 17.7446 19.1164 17.7612C19.1156 17.7783 19.1097 17.7946 19.0997 17.8079C19.0896 17.8211 19.0759 17.8306 19.0605 17.8348L16.7294 18.5712H16.7107ZM17.4256 17.0583L16.8537 18.3503L18.7994 17.7679L17.4256 17.0583Z" fill="#161616"/>
<path d="M10.7185 23.2572L11.1226 19.6823L8.55519 19.7626L10.7185 23.2572Z" fill="#CC6228"/>
<path d="M10.7182 23.3376C10.6922 23.3365 10.6677 23.3245 10.6498 23.3042L8.48651 19.8096C8.47875 19.7966 8.47462 19.7815 8.47462 19.7661C8.47462 19.7507 8.47875 19.7356 8.48651 19.7226C8.49203 19.7095 8.50071 19.6982 8.51164 19.69C8.52258 19.6818 8.53537 19.6768 8.54867 19.6757L11.116 19.5954C11.116 19.5954 11.1658 19.5954 11.1782 19.5954C11.1826 19.6047 11.1849 19.615 11.1849 19.6255C11.1849 19.636 11.1826 19.6463 11.1782 19.6556L10.7928 23.2573C10.7931 23.2747 10.7876 23.2917 10.7773 23.3052C10.7671 23.3187 10.7527 23.3278 10.7368 23.331L10.7182 23.3376ZM8.69787 19.8364L10.6622 23.023L11.0352 19.7694L8.69787 19.8364Z" fill="#CC6228"/>
<path d="M18.9361 19.6823L19.3339 23.2572L21.5035 19.7626L18.9361 19.6823Z" fill="#CC6228"/>
<path d="M19.3337 23.3376C19.3183 23.3333 19.3046 23.3239 19.2946 23.3106C19.2845 23.2974 19.2786 23.281 19.2778 23.2639L18.8799 19.689C18.8756 19.6797 18.8733 19.6694 18.8733 19.6589C18.8733 19.6485 18.8756 19.6381 18.8799 19.6288C18.8897 19.624 18.9003 19.6215 18.911 19.6215C18.9218 19.6215 18.9324 19.624 18.9421 19.6288L21.5095 19.7091C21.5234 19.7109 21.5368 19.716 21.5486 19.7241C21.5605 19.7322 21.5705 19.7431 21.5778 19.756C21.5839 19.7696 21.5871 19.7844 21.5871 19.7995C21.5871 19.8146 21.5839 19.8294 21.5778 19.843L19.4208 23.3041C19.4119 23.3194 19.3984 23.331 19.3826 23.3371C19.3669 23.3432 19.3496 23.3433 19.3337 23.3376ZM19.0229 19.7694L19.3835 23.0229L21.3665 19.8363L19.0229 19.7694Z" fill="#CC6228"/>
<path d="M20.8827 15.7462L16.2826 15.9671L16.7115 18.5111L17.3891 16.978L19.0302 17.7814L20.8827 15.7462Z" fill="#CC6228"/>
<path d="M16.7106 18.5715C16.6939 18.5702 16.6781 18.5629 16.6656 18.5508C16.6532 18.5386 16.645 18.5223 16.6422 18.5045L16.2195 15.9673C16.2146 15.9569 16.2121 15.9454 16.2121 15.9338C16.2121 15.9222 16.2146 15.9107 16.2195 15.9003C16.226 15.8906 16.2343 15.8826 16.244 15.8768C16.2537 15.871 16.2644 15.8676 16.2755 15.8669L20.8818 15.6392C20.8974 15.6407 20.9124 15.6464 20.9255 15.6557C20.9385 15.6651 20.9492 15.6778 20.9564 15.6928C20.965 15.7054 20.9696 15.7207 20.9696 15.7363C20.9696 15.752 20.965 15.7672 20.9564 15.7798L19.0915 17.8217C19.0783 17.8331 19.0618 17.8393 19.0449 17.8393C19.0279 17.8393 19.0115 17.8331 18.9983 17.8217L17.4317 17.0518L16.8101 18.5112C16.8081 18.5227 16.8037 18.5336 16.7974 18.5431C16.791 18.5526 16.7828 18.5605 16.7734 18.5663C16.7639 18.572 16.7534 18.5754 16.7425 18.5763C16.7317 18.5772 16.7208 18.5756 16.7106 18.5715ZM16.3749 16.0208L16.7417 18.2167L17.3198 16.8777C17.3291 16.8592 17.3443 16.845 17.3626 16.8376C17.3809 16.8302 17.401 16.8302 17.4193 16.8376L19.0107 17.6208L20.6642 15.8401L16.3749 16.0208Z" fill="#CC6228"/>
<path d="M11.0416 17.7814L12.6703 16.978L13.3478 18.5111L13.7768 15.9671L9.17665 15.7462L11.0416 17.7814Z" fill="#CC6228"/>
<path d="M13.3479 18.5713C13.3331 18.57 13.3188 18.5644 13.3067 18.5549C13.2946 18.5455 13.2852 18.5326 13.2796 18.5177L12.6579 17.0583L11.0976 17.8282C11.0853 17.8391 11.07 17.845 11.0541 17.845C11.0382 17.845 11.0228 17.8391 11.0106 17.8282L9.14565 15.7864C9.13707 15.7737 9.13244 15.7585 9.13244 15.7428C9.13244 15.7272 9.13707 15.7119 9.14565 15.6993C9.15333 15.6847 9.16407 15.6723 9.17703 15.663C9.18999 15.6537 9.20479 15.6478 9.22025 15.6458L13.8266 15.8734C13.8274 15.8801 13.8274 15.8868 13.8266 15.8935C13.8315 15.9038 13.8341 15.9153 13.8341 15.9269C13.8341 15.9386 13.8315 15.95 13.8266 15.9604L13.4039 18.4977C13.4011 18.5155 13.3929 18.5318 13.3805 18.5439C13.3681 18.5561 13.3522 18.5633 13.3355 18.5646L13.3479 18.5713ZM12.6703 16.8642C12.6847 16.8641 12.6988 16.8684 12.711 16.8767C12.7231 16.8851 12.7327 16.897 12.7387 16.911L13.3168 18.25L13.6836 16.0541L9.36944 15.8466L11.0541 17.6876L12.6393 16.9043L12.6703 16.8642Z" fill="#CC6228"/>
<path d="M9.17665 15.7462L11.1037 19.763L11.0416 17.7546L9.17665 15.7462Z" fill="#E27525"/>
<path d="M11.1041 19.9102C11.0898 19.9103 11.0756 19.906 11.0635 19.8977C11.0514 19.8894 11.0417 19.8774 11.0357 19.8634L9.10867 15.8132C9.09687 15.7995 9.09031 15.7816 9.09031 15.7629C9.09031 15.7443 9.09687 15.7264 9.10867 15.7127C9.1156 15.7052 9.12383 15.6993 9.1329 15.6953C9.14197 15.6912 9.15169 15.6891 9.16151 15.6891C9.17132 15.6891 9.18105 15.6912 9.19011 15.6953C9.19918 15.6993 9.20742 15.7052 9.21435 15.7127L11.0793 17.7211C11.0846 17.7408 11.0846 17.7617 11.0793 17.7814L11.1476 19.7897C11.1471 19.8094 11.1408 19.8284 11.1296 19.8441C11.1185 19.8597 11.103 19.8711 11.0855 19.8768L11.1041 19.9102ZM9.47543 16.1947L11.0171 19.4215L10.9674 17.8148L9.47543 16.1947Z" fill="#E27525"/>
<path d="M19.0296 17.7811L18.955 19.7895L20.8821 15.7728L19.0296 17.7811Z" fill="#E27525"/>
<path d="M18.9552 19.91C18.9377 19.9043 18.9222 19.8929 18.9111 19.8773C18.8999 19.8616 18.8936 19.8426 18.893 19.8229L18.9676 17.8146C18.9629 17.7948 18.9629 17.7741 18.9676 17.7543L20.8326 15.7459C20.8481 15.7344 20.8665 15.7283 20.8854 15.7283C20.9043 15.7283 20.9227 15.7344 20.9382 15.7459C20.9484 15.7617 20.9538 15.7803 20.9538 15.7995C20.9538 15.8186 20.9484 15.8373 20.9382 15.853L19.0049 19.9033C18.9897 19.9122 18.972 19.9146 18.9552 19.91ZM19.1044 17.848L19.0485 19.4547L20.5839 16.2279L19.1044 17.848Z" fill="#E27525"/>
<path d="M13.7771 15.9674L13.3482 18.5113L13.889 21.5105L14.0133 17.554L13.7771 15.9674Z" fill="#E27525"/>
<path d="M13.8891 21.597C13.8713 21.5973 13.854 21.5907 13.8404 21.5784C13.8267 21.5661 13.8175 21.549 13.8146 21.5301L13.2737 18.5242L13.7027 15.9803C13.7056 15.9613 13.7148 15.9442 13.7285 15.9319C13.7421 15.9196 13.7594 15.913 13.7773 15.9133C13.7955 15.9139 13.8132 15.9207 13.8277 15.9327C13.8422 15.9447 13.8528 15.9614 13.8581 15.9803L14.0881 17.5669L13.97 21.5434C13.9685 21.5642 13.9602 21.5838 13.9465 21.5985C13.9328 21.6133 13.9147 21.6222 13.8954 21.6238L13.8891 21.597ZM13.4291 18.5108L13.827 20.7669L13.9202 17.5535L13.7586 16.469L13.4291 18.5108Z" fill="#E27525"/>
<path d="M16.3135 15.9674L16.0897 17.5473L16.2016 21.5105L16.7424 18.5113L16.3135 15.9674Z" fill="#E27525"/>
<path d="M16.17 21.5968C16.1507 21.5952 16.1325 21.5863 16.1188 21.5715C16.1052 21.5568 16.0968 21.5372 16.0954 21.5164L15.9835 17.5533L16.2135 15.9533C16.2155 15.9418 16.2199 15.9309 16.2262 15.9214C16.2326 15.9119 16.2408 15.904 16.2502 15.8982C16.2597 15.8925 16.2702 15.889 16.2811 15.8881C16.2919 15.8872 16.3028 15.8889 16.313 15.893C16.3308 15.8927 16.3481 15.8993 16.3618 15.9116C16.3755 15.9239 16.3846 15.941 16.3876 15.9599L16.8165 18.5039L16.2757 21.5097C16.2782 21.5243 16.2769 21.5394 16.2719 21.5532C16.267 21.5671 16.2586 21.5792 16.2476 21.5882C16.2367 21.5972 16.2236 21.6028 16.2099 21.6043C16.1962 21.6058 16.1824 21.6032 16.17 21.5968ZM16.313 16.4754L16.1576 17.5599L16.2508 20.76L16.6549 18.5106L16.313 16.4754Z" fill="#E27525"/>
<path d="M16.7112 18.5107L16.1704 21.5098L16.5558 21.8044L18.9553 19.796L19.0299 17.7877L16.7112 18.5107Z" fill="#F5841F"/>
<path d="M16.5561 21.9183H16.5126L16.1209 21.6238C16.1086 21.6139 16.0991 21.6005 16.0936 21.5851C16.0881 21.5697 16.0868 21.5529 16.0898 21.5367L16.6369 18.5376C16.6376 18.5222 16.6428 18.5075 16.6518 18.4955C16.6607 18.4835 16.6729 18.4748 16.6866 18.4706L19.0053 17.7409C19.0161 17.7359 19.0278 17.7334 19.0395 17.7334C19.0513 17.7334 19.0629 17.7359 19.0737 17.7409C19.0818 17.7647 19.0818 17.7908 19.0737 17.8145L18.9991 19.8229C19.0032 19.8335 19.0053 19.8449 19.0053 19.8564C19.0053 19.8679 19.0032 19.8793 18.9991 19.8899L16.5996 21.8982C16.5878 21.9103 16.5723 21.9174 16.5561 21.9183ZM16.2577 21.5033L16.5561 21.7309L18.881 19.7827L18.9432 17.9217L16.7799 18.5911L16.2577 21.5033Z" fill="#F5841F"/>
<path d="M11.0419 17.7809L11.104 19.7893L13.5036 21.7976L13.889 21.5031L13.3482 18.5039L11.0419 17.7809Z" fill="#F5841F"/>
<path d="M13.5032 21.9183C13.4871 21.9239 13.4697 21.9239 13.4535 21.9183L11.054 19.9099C11.0481 19.888 11.0481 19.8648 11.054 19.8429L10.9856 17.8346C10.9775 17.8108 10.9775 17.7847 10.9856 17.7609C10.9964 17.756 11.008 17.7534 11.0198 17.7534C11.0315 17.7534 11.0432 17.756 11.054 17.7609L13.3665 18.4906C13.3806 18.4952 13.3933 18.5039 13.4031 18.5157C13.413 18.5275 13.4197 18.542 13.4224 18.5576L13.9632 21.5568C13.9663 21.5729 13.9649 21.5897 13.9594 21.6051C13.9539 21.6205 13.9445 21.634 13.9322 21.6438L13.5405 21.9383L13.5032 21.9183ZM11.1783 19.7827L13.5032 21.7308L13.8078 21.5032L13.2857 18.571L11.1224 17.9015L11.1783 19.7827Z" fill="#F5841F"/>
<path d="M16.7601 24.5963V23.7729L16.555 23.5788H13.4468L13.2478 23.7729V24.5963L10.7178 23.2574L11.6191 24.0541L13.4841 25.393H16.6295L18.4945 24.0541L19.3337 23.2574L16.7601 24.5963Z" fill="#C0AC9D"/>
<path d="M16.5996 25.5002H13.4541H13.4106L11.5768 24.1612L10.6692 23.3579C10.6569 23.3432 10.6502 23.3241 10.6502 23.3043C10.6502 23.2846 10.6569 23.2655 10.6692 23.2508C10.6802 23.2344 10.6958 23.2223 10.7137 23.2162C10.7317 23.2102 10.7509 23.2106 10.7686 23.2173L13.2552 24.4826V23.8131C13.2558 23.8003 13.2589 23.7877 13.2643 23.7762C13.2696 23.7646 13.2771 23.7544 13.2863 23.7462L13.4852 23.5587C13.5012 23.552 13.5189 23.552 13.5349 23.5587H16.6431C16.6591 23.552 16.6769 23.552 16.6929 23.5587L16.9042 23.7462C16.9113 23.7678 16.9113 23.7915 16.9042 23.8131V24.4826L19.3908 23.2173C19.4086 23.2116 19.4275 23.2117 19.4452 23.2177C19.463 23.2236 19.4786 23.2352 19.4902 23.2508C19.5025 23.2655 19.5092 23.2846 19.5092 23.3043C19.5092 23.3241 19.5025 23.3432 19.4902 23.3579L18.5951 24.1612L16.7302 25.5002H16.5996ZM13.4914 25.3328H16.5996L18.421 23.9939L18.8313 23.6257L16.8172 24.6566C16.8064 24.6653 16.7933 24.67 16.7799 24.67C16.7664 24.67 16.7533 24.6653 16.7426 24.6566C16.7302 24.6499 16.7199 24.6393 16.7133 24.6261C16.7066 24.6129 16.7038 24.5979 16.7053 24.583V23.7997L16.5437 23.6591H13.5163L13.3671 23.7997V24.583C13.3686 24.5979 13.3658 24.6129 13.3591 24.6261C13.3525 24.6393 13.3422 24.6499 13.3298 24.6566C13.319 24.6653 13.3059 24.67 13.2925 24.67C13.279 24.67 13.266 24.6653 13.2552 24.6566L11.2473 23.6324L11.6576 23.9939L13.4914 25.3328Z" fill="#C0AC9D"/>
<path d="M16.5553 21.8049L16.1699 21.5103H13.8885L13.5031 21.8049L13.2855 23.753L13.4844 23.5588H16.5926L16.7978 23.753L16.5553 21.8049Z" fill="#161616"/>
<path d="M13.286 23.8327H13.2487C13.2358 23.8232 13.2255 23.8101 13.2189 23.7948C13.2124 23.7794 13.2098 23.7625 13.2114 23.7457L13.429 21.8043C13.4292 21.7923 13.4321 21.7805 13.4376 21.77C13.443 21.7595 13.4507 21.7506 13.4601 21.744L13.8455 21.4495H13.889H16.1704H16.2139L16.5993 21.744C16.6087 21.7506 16.6164 21.7595 16.6218 21.77C16.6272 21.7805 16.6302 21.7923 16.6304 21.8043L16.8604 23.7457C16.8607 23.763 16.8569 23.7801 16.8493 23.7954C16.8417 23.8106 16.8305 23.8235 16.8169 23.8327C16.8042 23.8426 16.789 23.8478 16.7734 23.8478C16.7578 23.8478 16.7426 23.8426 16.7299 23.8327L16.5434 23.6654H13.516L13.3357 23.8327C13.3197 23.8395 13.302 23.8395 13.286 23.8327ZM13.4849 23.4779H16.5931C16.6091 23.4712 16.6269 23.4712 16.6428 23.4779L16.6988 23.5248L16.4999 21.8311L16.1642 21.5767H13.9138L13.5782 21.8311L13.3855 23.5248L13.4352 23.4779C13.4512 23.4712 13.4689 23.4712 13.4849 23.4779Z" fill="#161616"/>
<path d="M24.7923 11.5287L25.4823 7.93374L24.4442 4.58646L16.5556 10.886L19.5954 13.6442L23.8785 14.9831L24.8234 13.7915L24.3945 13.4768L25.0161 12.8074L24.5188 12.3856L25.1404 11.8501L24.7923 11.5287Z" fill="#763E1A"/>
<path d="M23.8781 15.0699L19.5888 13.731L16.5055 10.9527C16.4978 10.9312 16.4978 10.9073 16.5055 10.8858C16.5052 10.8728 16.5079 10.8598 16.5134 10.8482C16.5188 10.8365 16.5267 10.8264 16.5366 10.8188L24.3941 4.51256C24.4039 4.50442 24.4159 4.5 24.4283 4.5C24.4407 4.5 24.4527 4.50442 24.4625 4.51256C24.4745 4.5158 24.4855 4.52249 24.4942 4.53192C24.503 4.54136 24.5092 4.55318 24.5122 4.56612L25.5441 7.9134C25.547 7.92661 25.547 7.94036 25.5441 7.95357L24.8665 11.495L25.2582 11.8163C25.2684 11.8237 25.2768 11.8336 25.2827 11.8453C25.2885 11.857 25.2915 11.87 25.2915 11.8833C25.2915 11.8965 25.2885 11.9096 25.2827 11.9213C25.2768 11.933 25.2684 11.9429 25.2582 11.9502L24.68 12.4188L25.1028 12.7737C25.1121 12.7802 25.1198 12.7891 25.1252 12.7996C25.1307 12.8101 25.1336 12.8219 25.1338 12.8339C25.1397 12.8558 25.1397 12.879 25.1338 12.9009L24.5495 13.4699L24.8852 13.731C24.8918 13.7504 24.8918 13.7718 24.8852 13.7912C24.8913 13.8108 24.8913 13.8319 24.8852 13.8515L23.9403 15.0431C23.9323 15.0521 23.9226 15.0591 23.9119 15.0638C23.9012 15.0684 23.8897 15.0705 23.8781 15.0699ZM19.6323 13.5703L23.8533 14.9092L24.7111 13.8314L24.3941 13.5502C24.3849 13.542 24.3774 13.5318 24.3721 13.5202C24.3667 13.5087 24.3636 13.4961 24.363 13.4833C24.3576 13.4731 24.3547 13.4616 24.3547 13.4498C24.3547 13.4381 24.3576 13.4265 24.363 13.4163L24.9473 12.8406L24.5184 12.4858C24.5086 12.4782 24.5006 12.4681 24.4952 12.4565C24.4898 12.4448 24.4871 12.4319 24.4873 12.4188C24.488 12.406 24.4911 12.3934 24.4964 12.3819C24.5018 12.3704 24.5092 12.3602 24.5184 12.3519L25.0965 11.8833L24.7484 11.5954C24.7413 11.5822 24.7376 11.5672 24.7376 11.5519C24.7376 11.5366 24.7413 11.5216 24.7484 11.5084L25.4322 7.94018L24.3941 4.73348L16.6796 10.8925L19.6323 13.5703Z" fill="#763E1A"/>
<path d="M4.58256 7.93363L5.27258 11.5286L4.83121 11.8767L5.49015 12.4123L4.99284 12.8341L5.64556 13.5035L5.23528 13.8249L6.18017 14.9897L10.4695 13.6508L13.5031 10.8926L5.61448 4.59974L4.58256 7.93363Z" fill="#763E1A"/>
<path d="M6.18061 15.0704C6.17076 15.0749 6.16019 15.0771 6.14952 15.0771C6.13885 15.0771 6.12829 15.0749 6.11844 15.0704L5.17355 13.8855C5.16739 13.866 5.16739 13.8448 5.17355 13.8253C5.17857 13.8025 5.18932 13.7816 5.20463 13.765L5.54032 13.5039L4.93733 12.9014C4.93146 12.8795 4.93146 12.8563 4.93733 12.8345C4.93338 12.825 4.93134 12.8147 4.93134 12.8043C4.93134 12.7939 4.93338 12.7837 4.93733 12.7742L5.36004 12.4194L4.7757 11.9508C4.76544 11.9434 4.75703 11.9335 4.75121 11.9218C4.74539 11.9101 4.74234 11.8971 4.74234 11.8838C4.74234 11.8706 4.74539 11.8575 4.75121 11.8458C4.75703 11.8342 4.76544 11.8242 4.7757 11.8169L5.17977 11.4955L4.50218 7.95412C4.49927 7.94091 4.49927 7.92716 4.50218 7.91395L5.5341 4.56667C5.53758 4.55285 5.54473 4.54042 5.55467 4.53091C5.5646 4.5214 5.5769 4.51521 5.59005 4.51311C5.59984 4.50497 5.61187 4.50055 5.62424 4.50055C5.63661 4.50055 5.64864 4.50497 5.65843 4.51311L13.547 10.8194C13.5577 10.8267 13.5666 10.8365 13.573 10.8481C13.5795 10.8597 13.5834 10.8728 13.5843 10.8863C13.591 10.9081 13.591 10.9315 13.5843 10.9533L10.5196 13.7114L6.23034 15.0504L6.18061 15.0704ZM5.34761 13.8186L6.20547 14.8964L10.4326 13.5575L13.3792 10.8796L5.65221 4.73403L4.65759 7.94073L5.34761 11.5089C5.35537 11.5219 5.3595 11.537 5.3595 11.5524C5.3595 11.5679 5.35537 11.583 5.34761 11.596L4.96219 11.8771L5.54032 12.3458C5.54949 12.354 5.55699 12.3642 5.56233 12.3757C5.56768 12.3873 5.57077 12.3998 5.5714 12.4127C5.57165 12.4257 5.56896 12.4386 5.56354 12.4503C5.55813 12.462 5.55015 12.472 5.54032 12.4796L5.12382 12.8412L5.70816 13.4169C5.71362 13.4271 5.71649 13.4386 5.71649 13.4504C5.71649 13.4621 5.71362 13.4737 5.70816 13.4838C5.70753 13.4967 5.70444 13.5093 5.69909 13.5208C5.69375 13.5323 5.68625 13.5425 5.67708 13.5508L5.34761 13.8186Z" fill="#763E1A"/>
<path d="M23.8784 14.9896L19.5953 13.6507L20.8821 15.7528L18.955 19.7695H21.5038H25.3206L23.8784 14.9896Z" fill="#F5841F"/>
<path d="M18.9551 19.91C18.9416 19.9095 18.9284 19.9056 18.9165 19.8986C18.9046 19.8917 18.8944 19.8818 18.8867 19.8698C18.8807 19.8574 18.8776 19.8437 18.8776 19.8297C18.8776 19.8157 18.8807 19.8019 18.8867 19.7895L20.7952 15.7728L19.5519 13.7175C19.5428 13.7039 19.5379 13.6875 19.5379 13.6707C19.5379 13.6539 19.5428 13.6375 19.5519 13.6238C19.5615 13.6093 19.575 13.5983 19.5905 13.5924C19.6061 13.5864 19.623 13.5857 19.6389 13.5903L23.9282 14.9293C23.9402 14.9325 23.9512 14.9392 23.96 14.9486C23.9687 14.9581 23.9749 14.9699 23.9779 14.9828L25.4202 19.756C25.4243 19.7685 25.4255 19.7819 25.4236 19.795C25.4218 19.8081 25.4169 19.8205 25.4095 19.8312C25.4022 19.8418 25.3924 19.8502 25.3813 19.8558C25.3701 19.8614 25.3578 19.8639 25.3456 19.8632H21.5038L18.9551 19.8966V19.91ZM19.7757 13.8247L20.9506 15.7326C20.9566 15.745 20.9597 15.7588 20.9597 15.7728C20.9597 15.7868 20.9566 15.8005 20.9506 15.8129L19.0857 19.7426L21.5038 19.7092H25.2337L23.8474 15.0899L19.7757 13.8247Z" fill="#F5841F"/>
<path d="M10.4702 13.6444L6.18094 14.9833L4.75117 19.7632H8.5556H11.1043L9.17723 15.7465L10.4702 13.6444Z" fill="#F5841F"/>
<path d="M11.1034 19.9102L8.55467 19.8767H4.75024C4.74049 19.8816 4.72989 19.884 4.71916 19.884C4.70843 19.884 4.69783 19.8816 4.68808 19.8767C4.68208 19.8656 4.67892 19.8529 4.67892 19.8399C4.67892 19.827 4.68208 19.8143 4.68808 19.8031L6.11785 15.0299C6.12085 15.0169 6.12707 15.0051 6.13583 14.9957C6.14459 14.9863 6.15556 14.9796 6.16758 14.9763L10.4569 13.6374C10.4728 13.6316 10.49 13.6318 10.5058 13.6379C10.5216 13.644 10.535 13.6556 10.5439 13.6709C10.553 13.6845 10.5579 13.7009 10.5579 13.7177C10.5579 13.7346 10.553 13.7509 10.5439 13.7646L9.30064 15.8198L11.2091 19.8366C11.2151 19.849 11.2182 19.8628 11.2182 19.8767C11.2182 19.8907 11.2151 19.9045 11.2091 19.9169C11.2022 19.9249 11.1938 19.9312 11.1844 19.9353C11.175 19.9394 11.1649 19.9412 11.1548 19.9405C11.1446 19.9399 11.1348 19.9368 11.1259 19.9316C11.117 19.9264 11.1093 19.9191 11.1034 19.9102ZM4.887 19.7094H8.55467L10.9791 19.7429L9.11415 15.8131C9.10815 15.8007 9.10502 15.787 9.10502 15.773C9.10502 15.759 9.10815 15.7452 9.11415 15.7328L10.2828 13.7914L6.24217 15.0567L4.887 19.7094Z" fill="#F5841F"/>
<path d="M16.3132 15.9671L16.5868 10.8859L17.83 7.27088H12.2602L13.5034 10.8859L13.777 15.9671L13.8826 17.5671V21.5102H16.1641V17.5671L16.3132 15.9671Z" fill="#F5841F"/>
<path d="M16.1695 21.597H13.8881C13.8777 21.597 13.8675 21.5947 13.858 21.5903C13.8485 21.5858 13.84 21.5793 13.833 21.5711C13.826 21.5629 13.8206 21.5533 13.8173 21.5427C13.8139 21.5322 13.8126 21.521 13.8135 21.5099V17.5668L13.7078 15.9735L13.4343 10.9057L12.191 7.29736C12.1873 7.27345 12.1924 7.24893 12.2052 7.22896C12.2179 7.20899 12.2373 7.19511 12.2594 7.19025H17.7982C17.8103 7.1918 17.822 7.19607 17.8325 7.20279C17.8429 7.20952 17.852 7.21854 17.859 7.22927C17.866 7.24 17.8709 7.2522 17.8733 7.26508C17.8757 7.27797 17.8755 7.29125 17.8728 7.30405L16.6295 10.9124L16.356 15.9802L16.2503 17.5802V21.5166C16.2503 21.5278 16.2482 21.5388 16.2441 21.549C16.24 21.5592 16.2339 21.5684 16.2263 21.5759C16.2187 21.5835 16.2097 21.5893 16.2 21.5929C16.1902 21.5965 16.1798 21.5979 16.1695 21.597ZM13.9689 21.4296H16.0887V17.5668L16.1881 15.9668L16.4679 10.879L17.6739 7.371H12.3713L13.5773 10.8589L13.8508 15.9467L13.9565 17.5401L13.9689 21.4296Z" fill="#F5841F"/>
</svg>
