<svg width="76" height="69" viewBox="0 0 76 69" fill="none" xmlns="http://www.w3.org/2000/svg">
<path d="M36.8858 38.6567C36.5842 39.2778 36.6079 40.0083 36.9473 40.6095L41.7703 48.8705C42.1785 49.5709 42.1383 50.4449 41.6683 51.107C41.2167 51.7806 40.4177 52.1329 39.6156 52.018L30.1334 50.7702C29.8026 50.7238 29.4661 50.7568 29.148 50.8626L28.6604 51.0403C28.5004 51.1271 28.3545 51.2414 28.2335 51.3791L21.7837 58.4564C21.4617 58.7978 21.0411 59.0305 20.5783 59.1197C19.4398 59.3066 18.3596 58.5519 18.1443 57.4187L16.5221 47.9911C16.393 47.3071 15.9398 46.729 15.3067 46.4405L6.5166 42.5171C5.78127 42.1885 5.30407 41.4664 5.29226 40.6623C5.2739 39.8626 5.69989 39.1188 6.40038 38.7311L14.8701 34.1758C15.5247 33.8578 15.9713 33.2267 16.0544 32.504L17.053 22.9968C17.081 22.783 17.1413 22.5737 17.2359 22.3803L17.352 22.1955C17.4025 22.0712 17.4715 21.9585 17.5565 21.8562L17.7264 21.7128L17.9864 21.4755L18.7439 21.1994C19.4459 21.023 20.1889 21.2104 20.7203 21.7009L27.6414 28.2808C28.1435 28.7636 28.8518 28.9677 29.5338 28.8312L38.9483 26.8679C39.7432 26.7004 40.5648 26.9915 41.0769 27.6193C41.5754 28.2542 41.6603 29.1193 41.2955 29.8407L36.8858 38.6567Z" fill="url(#paint0_linear_1878_560)"/>
<g opacity="0.5" filter="url(#filter0_f_1878_560)">
<path d="M28.6045 33.8849C24.4862 33.8849 21.1438 37.224 21.1438 41.3365C21.1438 45.4506 24.4862 48.7882 28.6045 48.7882C32.7302 48.7882 36.0652 45.4506 36.0652 41.3365C36.0652 37.224 32.7302 33.8849 28.6045 33.8849Z" fill="#FF3D22"/>
</g>
<g filter="url(#filter1_b_1878_560)">
<path d="M58.8595 37.2764C58.0997 37.7145 57.6038 38.4994 57.5319 39.3731L56.7126 51.4924C56.6424 52.5193 55.977 53.4095 55.0108 53.7707C54.0558 54.1573 52.9646 53.9586 52.2032 53.2665L43.124 45.2012C42.8093 44.9168 42.4319 44.7118 42.022 44.5965L41.3827 44.436C41.1527 44.4133 40.9178 44.4295 40.6924 44.4882L28.8656 47.3342C28.2837 47.4637 27.6755 47.4088 27.1254 47.173C25.7952 46.5586 25.1976 44.9958 25.7792 43.6512L30.7954 32.5853C31.1474 31.7743 31.083 30.8438 30.6232 30.0896L24.1791 19.7047C23.6404 18.8355 23.6535 17.7366 24.2144 16.8828C24.7653 16.0291 25.7434 15.5506 26.7563 15.642L38.9085 16.8857C39.8234 17.0176 40.743 16.6723 41.3456 15.9718L49.1737 6.68877C49.3557 6.48393 49.5683 6.30682 49.8056 6.17099L50.0594 6.05934C50.2012 5.96464 50.354 5.89529 50.5163 5.84835L50.7972 5.81863L51.2397 5.75435L52.2329 6.00361C53.0968 6.31813 53.7443 7.04427 53.9533 7.93841L56.5384 19.7848C56.722 20.65 57.3211 21.369 58.1355 21.7112L69.4329 26.3527C70.3882 26.7427 71.0444 27.6339 71.1352 28.6587C71.2065 29.6811 70.6791 30.651 69.7811 31.1496L58.8595 37.2764Z" fill="#FFAC95" fill-opacity="0.4"/>
<path d="M57.2115 51.5262L57.2116 51.5258L58.0303 39.4138C58.0304 39.4127 58.0305 39.4116 58.0306 39.4105C58.0899 38.702 58.4921 38.0663 59.1068 37.7108C59.1076 37.7104 59.1084 37.7099 59.1092 37.7095L70.0238 31.5866C70.0241 31.5864 70.0243 31.5863 70.0246 31.5861C71.0914 30.9934 71.7189 29.84 71.634 28.6237L71.6341 28.6236L71.6333 28.6143C71.526 27.4035 70.751 26.3509 69.6226 25.89C69.6225 25.89 69.6223 25.8899 69.6222 25.8899L58.3294 21.2503C58.3288 21.25 58.3282 21.2498 58.3277 21.2495C57.664 20.97 57.1768 20.384 57.0276 19.6808L57.027 19.678L54.4419 7.83161L54.4419 7.8316L54.4402 7.82444C54.1926 6.7649 53.4256 5.90569 52.4043 5.53385C52.3881 5.52796 52.3716 5.52291 52.3549 5.51872L51.3617 5.26946C51.2984 5.25357 51.2327 5.25023 51.1681 5.25961L50.7352 5.3225L50.464 5.35119C50.4347 5.35428 50.4058 5.35995 50.3776 5.36812C50.1833 5.4243 49.9965 5.50644 49.8209 5.6182L49.6044 5.71341C49.5883 5.72049 49.5726 5.72842 49.5574 5.73716C49.2693 5.90204 49.015 6.11478 48.7999 6.35692L48.7998 6.35681L48.7915 6.36665L40.9665 15.6459C40.966 15.6465 40.9656 15.647 40.9651 15.6476C40.4738 16.2175 39.7249 16.4983 38.9802 16.3909C38.9734 16.3899 38.9666 16.3891 38.9597 16.3884L26.8074 15.1446L26.8074 15.1446L26.8014 15.1441C25.6037 15.036 24.447 15.6016 23.7953 16.6103C23.1282 17.6271 23.1136 18.9349 23.754 19.9682L23.7542 19.9684L30.1961 30.35C30.1965 30.3505 30.1968 30.3511 30.1971 30.3516C30.5708 30.9657 30.6235 31.7226 30.3382 32.383L25.3237 43.4451L25.3237 43.445L25.3202 43.453C24.6309 45.0468 25.3392 46.8988 26.9155 47.6269L26.9154 47.627L26.9282 47.6325C27.5754 47.9099 28.2905 47.9743 28.974 47.8222L28.974 47.8223L28.9824 47.8203L40.8092 44.9742L40.8092 44.9743L40.8181 44.972C40.9728 44.9318 41.1361 44.9181 41.2991 44.9305L41.8928 45.0795C42.2285 45.1751 42.5345 45.3426 42.7885 45.5721L42.7917 45.5749L51.8667 53.6365C51.8674 53.6371 51.8681 53.6377 51.8688 53.6384C52.7694 54.4556 54.0598 54.6921 55.192 54.2366C56.3381 53.8054 57.128 52.7474 57.2115 51.5262Z" stroke="url(#paint1_linear_1878_560)" stroke-linecap="round" stroke-linejoin="round"/>
</g>
<defs>
<filter id="filter0_f_1878_560" x="1.1438" y="13.8849" width="54.9214" height="54.9033" filterUnits="userSpaceOnUse" color-interpolation-filters="sRGB">
<feFlood flood-opacity="0" result="BackgroundImageFix"/>
<feBlend mode="normal" in="SourceGraphic" in2="BackgroundImageFix" result="shape"/>
<feGaussianBlur stdDeviation="10" result="effect1_foregroundBlur_1878_560"/>
</filter>
<filter id="filter1_b_1878_560" x="-1.21595" y="-19.2455" width="97.3577" height="98.2111" filterUnits="userSpaceOnUse" color-interpolation-filters="sRGB">
<feFlood flood-opacity="0" result="BackgroundImageFix"/>
<feGaussianBlur in="BackgroundImage" stdDeviation="12"/>
<feComposite in2="SourceAlpha" operator="in" result="effect1_backgroundBlur_1878_560"/>
<feBlend mode="normal" in="SourceGraphic" in2="effect1_backgroundBlur_1878_560" result="shape"/>
</filter>
<linearGradient id="paint0_linear_1878_560" x1="7.77101" y1="35.7713" x2="47.244" y2="72.7829" gradientUnits="userSpaceOnUse">
<stop stop-color="#FFA78F"/>
<stop offset="1" stop-color="#F23E2C"/>
</linearGradient>
<linearGradient id="paint1_linear_1878_560" x1="34.5111" y1="7.10126" x2="53.4682" y2="50.9977" gradientUnits="userSpaceOnUse">
<stop stop-color="white" stop-opacity="0.25"/>
<stop offset="1" stop-color="white" stop-opacity="0"/>
</linearGradient>
</defs>
</svg>
