<svg width="69" height="65" viewBox="0 0 69 65" fill="none" xmlns="http://www.w3.org/2000/svg">
<path d="M56.4323 9.46249L38.8001 4.72114C32.4044 3.00133 27.6772 5.75814 25.9579 12.1977L20.1347 34.0076C18.3871 40.5527 21.13 45.2277 27.5257 46.9475L45.1579 51.6888C51.6567 53.4364 56.2561 50.7357 58.0037 44.1906L63.8269 22.3807C65.5462 15.9412 62.9311 11.21 56.4323 9.46249Z" fill="url(#paint0_linear_1878_980)"/>
<g opacity="0.5" filter="url(#filter0_f_1878_980)">
<path d="M51.8254 15.4349L39.8124 12.2046C35.455 11.0329 32.2343 12.9111 31.0629 17.2984L27.0955 32.1577C25.9049 36.6169 27.7737 39.8021 32.1311 40.9738L44.1441 44.2041C48.5717 45.3947 51.7054 43.5548 52.896 39.0955L56.8634 24.2362C58.0348 19.8489 56.2531 16.6255 51.8254 15.4349Z" fill="#1CC760"/>
</g>
<g filter="url(#filter1_b_1878_980)">
<mask id="path-3-outside-1_1878_980" maskUnits="userSpaceOnUse" x="0.450195" y="12.702" width="52" height="53" fill="black">
<rect fill="white" x="0.450195" y="12.702" width="52" height="53"/>
<path d="M37.386 13.702H15.6591C7.16384 13.702 1.4502 19.6874 1.4502 28.5902V49.1369C1.4502 58.0145 7.16384 64 15.6591 64H37.386C45.8813 64 51.5699 58.0145 51.5699 49.1369V28.5902C51.5699 19.6874 45.8813 13.702 37.386 13.702Z"/>
</mask>
<path d="M37.386 13.702H15.6591C7.16384 13.702 1.4502 19.6874 1.4502 28.5902V49.1369C1.4502 58.0145 7.16384 64 15.6591 64H37.386C45.8813 64 51.5699 58.0145 51.5699 49.1369V28.5902C51.5699 19.6874 45.8813 13.702 37.386 13.702Z" fill="#1CC760" fill-opacity="0.7"/>
<path d="M37.386 14.5364C37.8469 14.5364 38.2205 14.1628 38.2205 13.702C38.2205 13.2411 37.8469 12.8675 37.386 12.8675V14.5364ZM37.386 12.8675C36.9252 12.8675 36.5516 13.2411 36.5516 13.702C36.5516 14.1628 36.9252 14.5364 37.386 14.5364V12.8675ZM37.386 12.8675H15.6591V14.5364H37.386V12.8675ZM15.6591 12.8675C11.208 12.8675 7.42925 14.4403 4.7653 17.2314C2.10458 20.0192 0.615758 23.9588 0.615758 28.5902H2.28463C2.28463 24.3188 3.65263 20.8143 5.97256 18.3837C8.28926 15.9564 11.615 14.5364 15.6591 14.5364V12.8675ZM0.615758 28.5902V49.1369H2.28463V28.5902H0.615758ZM0.615758 49.1369C0.615758 53.7563 2.10496 57.6897 4.76565 60.474C7.4295 63.2617 11.208 64.8344 15.6591 64.8344V63.1655C11.615 63.1655 8.28901 61.7455 5.97221 59.3211C3.65226 56.8933 2.28463 53.3951 2.28463 49.1369H0.615758ZM15.6591 64.8344H37.386V63.1655H15.6591V64.8344ZM37.386 64.8344C41.8373 64.8344 45.61 63.2615 48.2677 60.4733C50.922 57.6886 52.4043 53.7553 52.4043 49.1369H50.7355C50.7355 53.3961 49.3735 56.8944 47.0597 59.3218C44.7493 61.7457 41.43 63.1655 37.386 63.1655V64.8344ZM52.4043 49.1369V28.5902H50.7355V49.1369H52.4043ZM52.4043 28.5902C52.4043 23.9598 50.9224 20.0203 48.268 17.2322C45.6102 14.4404 41.8374 12.8675 37.386 12.8675V14.5364C41.43 14.5364 44.7491 15.9562 47.0593 18.3829C49.3731 20.8132 50.7355 24.3178 50.7355 28.5902H52.4043Z" fill="url(#paint1_linear_1878_980)" mask="url(#path-3-outside-1_1878_980)"/>
</g>
<g filter="url(#filter2_bd_1878_980)">
<mask id="path-5-inside-2_1878_980" fill="white">
<path d="M23.5352 47.0191C22.9739 47.0191 22.4125 46.8053 21.984 46.3753L16.0373 40.4074C15.1803 39.5473 15.1803 38.154 16.0373 37.2965C16.8944 36.4364 18.2802 36.4338 19.1372 37.2939L23.5352 41.7076L33.8799 31.3261C34.737 30.466 36.1228 30.466 36.9798 31.3261C37.8369 32.1862 37.8369 33.5794 36.9798 34.4395L25.0864 46.3753C24.6579 46.8053 24.0966 47.0191 23.5352 47.0191Z"/>
</mask>
<path d="M23.5352 47.0191C22.9739 47.0191 22.4125 46.8053 21.984 46.3753L16.0373 40.4074C15.1803 39.5473 15.1803 38.154 16.0373 37.2965C16.8944 36.4364 18.2802 36.4338 19.1372 37.2939L23.5352 41.7076L33.8799 31.3261C34.737 30.466 36.1228 30.466 36.9798 31.3261C37.8369 32.1862 37.8369 33.5794 36.9798 34.4395L25.0864 46.3753C24.6579 46.8053 24.0966 47.0191 23.5352 47.0191Z" fill="url(#paint2_linear_1878_980)"/>
<path d="M16.0373 37.2965L16.1554 37.4144L16.1555 37.4143L16.0373 37.2965ZM23.5352 41.7076L23.417 41.8254L23.5352 41.944L23.6534 41.8254L23.5352 41.7076ZM33.8799 31.3261L33.7617 31.2083L33.8799 31.3261ZM36.9798 34.4395L36.8616 34.3217L36.9798 34.4395ZM25.0864 46.3753L25.2046 46.493L25.0864 46.3753ZM23.5352 46.8522C23.0163 46.8522 22.4981 46.6547 22.1022 46.2575L21.8658 46.493C22.327 46.9559 22.9315 47.186 23.5352 47.186V46.8522ZM22.1022 46.2575L16.1555 40.2896L15.9191 40.5252L21.8658 46.493L22.1022 46.2575ZM16.1555 40.2896C15.3633 39.4945 15.3635 38.2068 16.1554 37.4144L15.9193 37.1785C14.997 38.1013 14.9973 39.6001 15.9191 40.5252L16.1555 40.2896ZM16.1555 37.4143C16.9476 36.6194 18.2274 36.6174 19.019 37.4117L19.2554 37.1761C18.3329 36.2503 16.8411 36.2534 15.9191 37.1787L16.1555 37.4143ZM19.019 37.4117L23.417 41.8254L23.6534 41.5898L19.2554 37.1761L19.019 37.4117ZM23.6534 41.8254L33.9981 31.4439L33.7617 31.2083L23.417 41.5898L23.6534 41.8254ZM33.9981 31.4439C34.79 30.6492 36.0698 30.6492 36.8616 31.4439L37.098 31.2083C36.1758 30.2827 34.684 30.2827 33.7617 31.2083L33.9981 31.4439ZM36.8616 31.4439C37.6538 32.2389 37.6538 33.5268 36.8616 34.3217L37.098 34.5573C38.02 33.6321 38.02 32.1335 37.098 31.2083L36.8616 31.4439ZM36.8616 34.3217L24.9682 46.2575L25.2046 46.493L37.098 34.5573L36.8616 34.3217ZM24.9682 46.2575C24.5723 46.6547 24.0541 46.8522 23.5352 46.8522V47.186C24.139 47.186 24.7435 46.9559 25.2046 46.493L24.9682 46.2575Z" fill="url(#paint3_linear_1878_980)" fill-opacity="0.5" mask="url(#path-5-inside-2_1878_980)"/>
</g>
<defs>
<filter id="filter0_f_1878_980" x="15.062" y="0.180918" width="53.8349" height="56.0593" filterUnits="userSpaceOnUse" color-interpolation-filters="sRGB">
<feFlood flood-opacity="0" result="BackgroundImageFix"/>
<feBlend mode="normal" in="SourceGraphic" in2="BackgroundImageFix" result="shape"/>
<feGaussianBlur stdDeviation="5.84106" result="effect1_foregroundBlur_1878_980"/>
</filter>
<filter id="filter1_b_1878_980" x="-19.4103" y="-7.15897" width="91.8411" height="92.0199" filterUnits="userSpaceOnUse" color-interpolation-filters="sRGB">
<feFlood flood-opacity="0" result="BackgroundImageFix"/>
<feGaussianBlur in="BackgroundImage" stdDeviation="10.0132"/>
<feComposite in2="SourceAlpha" operator="in" result="effect1_backgroundBlur_1878_980"/>
<feBlend mode="normal" in="SourceGraphic" in2="effect1_backgroundBlur_1878_980" result="shape"/>
</filter>
<filter id="filter2_bd_1878_980" x="2.87798" y="18.1645" width="47.2616" height="41.3712" filterUnits="userSpaceOnUse" color-interpolation-filters="sRGB">
<feFlood flood-opacity="0" result="BackgroundImageFix"/>
<feGaussianBlur in="BackgroundImage" stdDeviation="10.25828"/>
<feComposite in2="SourceAlpha" operator="in" result="effect1_backgroundBlur_1878_980"/>
<feColorMatrix in="SourceAlpha" type="matrix" values="0 0 0 0 0 0 0 0 0 0 0 0 0 0 0 0 0 0 127 0" result="hardAlpha"/>
<feOffset dx="4.17219" dy="4.17219"/>
<feGaussianBlur stdDeviation="4.17219"/>
<feColorMatrix type="matrix" values="0 0 0 0 0.109804 0 0 0 0 0.780392 0 0 0 0 0.376471 0 0 0 0.5 0"/>
<feBlend mode="normal" in2="effect1_backgroundBlur_1878_980" result="effect2_dropShadow_1878_980"/>
<feBlend mode="normal" in="SourceGraphic" in2="effect2_dropShadow_1878_980" result="shape"/>
</filter>
<linearGradient id="paint0_linear_1878_980" x1="66.5496" y1="12.1831" x2="28.0229" y2="35.6789" gradientUnits="userSpaceOnUse">
<stop stop-color="#68F8A1"/>
<stop offset="1" stop-color="#1CC760"/>
</linearGradient>
<linearGradient id="paint1_linear_1878_980" x1="9.42843" y1="19.5617" x2="41.537" y2="59.188" gradientUnits="userSpaceOnUse">
<stop stop-color="white" stop-opacity="0.25"/>
<stop offset="1" stop-color="white" stop-opacity="0"/>
</linearGradient>
<linearGradient id="paint2_linear_1878_980" x1="36.0467" y1="33.6313" x2="11.309" y2="34.7287" gradientUnits="userSpaceOnUse">
<stop stop-color="white"/>
<stop offset="1" stop-color="white" stop-opacity="0.2"/>
</linearGradient>
<linearGradient id="paint3_linear_1878_980" x1="17.789" y1="36.1616" x2="36.6632" y2="36.3034" gradientUnits="userSpaceOnUse">
<stop stop-color="white"/>
<stop offset="1" stop-color="white" stop-opacity="0"/>
</linearGradient>
</defs>
</svg>
