<svg width="20" height="20" viewBox="0 0 20 20" fill="none" xmlns="http://www.w3.org/2000/svg">
<circle cx="10" cy="10" r="10" fill="white"/>
<circle cx="9.99999" cy="10" r="9.16667" fill="#0065FF"/>
<mask id="mask0_1878_646" style="mask-type:alpha" maskUnits="userSpaceOnUse" x="0" y="0" width="20" height="20">
<circle cx="9.99999" cy="10" r="9.16667" fill="#0065FF"/>
</mask>
<g mask="url(#mask0_1878_646)">
<path d="M-0.0832672 14.3318V11.7933H-0.0127544C1.22404 11.7933 2.46131 11.7933 3.69904 11.7933C3.71985 11.7949 3.7407 11.7909 3.75951 11.7819C3.77832 11.7729 3.79443 11.7591 3.80622 11.7418C5.16947 9.97197 6.53272 8.2028 7.89596 6.43434C8.19071 6.05216 8.48193 5.66716 8.7809 5.2878C9.08974 4.89505 9.49872 4.7237 9.9909 4.79985C10.2219 4.82887 10.4396 4.92423 10.6176 5.07441C10.7955 5.22459 10.9261 5.42313 10.9936 5.64601C11.1015 5.96402 11.179 6.29191 11.2693 6.61556C11.5513 7.6206 11.8318 8.62541 12.1105 9.62998C12.2515 10.1283 12.3909 10.6268 12.5287 11.1256C12.5287 11.1326 12.5329 11.1404 12.5385 11.1573C12.5562 11.1368 12.5696 11.1213 12.5815 11.1058C13.2867 10.1943 13.9918 9.28283 14.6969 8.37133C14.8194 8.20296 14.9811 8.06695 15.168 7.97506C15.3548 7.88316 15.5613 7.83815 15.7694 7.84389C17.2239 7.84389 18.6785 7.84389 20.1335 7.84389H20.2117V10.3824H16.4069C16.388 10.3808 16.3691 10.3844 16.3521 10.3927C16.3351 10.401 16.3206 10.4138 16.3103 10.4296C15.2103 11.8554 14.1098 13.2809 13.0088 14.7062C12.8791 14.877 12.7083 15.0121 12.5122 15.099C12.3161 15.1859 12.1013 15.2217 11.8876 15.203C11.674 15.1843 11.4685 15.1118 11.2905 14.9923C11.1125 14.8727 10.9676 14.71 10.8695 14.5193C10.8019 14.372 10.7492 14.2182 10.7122 14.0603C10.3437 12.7441 9.97633 11.429 9.61013 10.1151C9.49543 9.70285 9.38026 9.29058 9.26462 8.87832C9.26462 8.86633 9.25545 8.85434 9.2484 8.8353L8.89583 9.29011L6.06192 12.973C5.83981 13.2614 5.62051 13.5512 5.39558 13.8368C5.27717 13.9939 5.12309 14.1206 4.94604 14.2065C4.769 14.2923 4.57408 14.3348 4.37737 14.3304C2.91494 14.3304 1.4525 14.3304 -0.00993389 14.3304L-0.0832672 14.3318Z" fill="white"/>
</g>
</svg>
